<svg xmlns="http://www.w3.org/2000/svg" xmlns:xlink="http://www.w3.org/1999/xlink" xmlns:lucid="lucid" width="173" height="173"><g transform="translate(-954 -313)" lucid:page-tab-id="OePOIciEZ7B6"><path d="M1035.76 324.24a6 6 0 0 1 8.48 0l71.52 71.52a6 6 0 0 1 0 8.48l-71.52 71.52a6 6 0 0 1-8.48 0l-71.52-71.52a6 6 0 0 1 0-8.48z" stroke="#1071e5" stroke-width="7" fill="#edf5ff"/><use xlink:href="#a" transform="matrix(1,0,0,1,965,325) translate(45.2784375 105.625)"/><defs><path d="M180 0v-1490h190v644h782v-644h190V0h-190v-678H370V0H180" id="b"/><use transform="matrix(0.0390625,0,0,0.0390625,0,0)" xlink:href="#b" id="a"/></defs></g></svg>